<svg width="20" height="20" viewBox="0 0 20 20" fill="none" xmlns="http://www.w3.org/2000/svg">
<g clip-path="url(#clip0_54_1252)">
<path fill-rule="evenodd" clip-rule="evenodd" d="M19.7145 6.14929L14.2595 0.364258C14.0705 0.165258 13.8035 0.0012207 13.5295 0.0012207H1.97949C0.874492 0.0012207 0.000488281 1.00122 0.000488281 2.10522V9.10522C0.000488281 9.65722 0.437502 10.0012 0.989502 10.0012H0.994476C1.54748 10.0012 2.00049 9.65722 2.00049 9.10522V3.10522C2.00049 2.55322 2.42749 2.00122 2.97949 2.00122H12.0005V6.10522C12.0005 7.21022 12.8745 8.00122 13.9795 8.00122H18.0005V9.10522C18.0005 9.65722 18.4375 10.0012 18.9895 10.0012H18.9945C19.5475 10.0012 20.0005 9.65722 20.0005 9.10522V6.83826C20.0005 6.58126 19.8915 6.33529 19.7145 6.14929ZM3.97949 15.1052C3.97949 14.5532 3.53149 14.1052 2.97949 14.1052H1.97949V16.1052H2.97949C3.53149 16.1052 3.97949 15.6572 3.97949 15.1052ZM5.97549 14.8392C6.06549 16.5692 4.68949 18.0012 2.97949 18.0012H2.00049V19.1052C2.00049 19.6572 1.54748 20.0012 0.994476 20.0012H0.989502C0.437502 20.0012 0.000488281 19.6572 0.000488281 19.1052V13.1052C0.000488281 12.5532 0.427492 12.0012 0.979492 12.0012H2.80948C4.43448 12.0012 5.89049 13.2172 5.97549 14.8392ZM11.0005 15.1052C11.0005 14.5532 10.5315 14.0012 9.97949 14.0012H9.00049V18.0012H9.97949C10.5315 18.0012 11.0005 17.6572 11.0005 17.1052V15.1052ZM13.0005 15.0012V17.0012C13.0005 18.6512 11.6505 20.0012 10.0005 20.0012H7.89548C7.40048 20.0012 7.00049 19.6002 7.00049 19.1052V12.9802C7.00049 12.4392 7.43849 12.0012 7.97949 12.0012H10.0005C11.6505 12.0012 13.0005 13.3512 13.0005 15.0012ZM20.0005 13.0272V13.0532C20.0005 13.6052 19.5315 14.0012 18.9795 14.0012H16.0005V16.0012H18.9795C19.5315 16.0012 20.0005 16.4742 20.0005 17.0272V17.0532C20.0005 17.6052 19.5315 18.0012 18.9795 18.0012H16.0005V19.1052C16.0005 19.6572 15.5475 20.0012 14.9945 20.0012H14.9895C14.4375 20.0012 14.0005 19.6572 14.0005 19.1052V13.1052C14.0005 12.5532 14.4275 12.0012 14.9795 12.0012H18.9795C19.5315 12.0012 20.0005 12.4742 20.0005 13.0272Z" fill="#555555"/>
</g>
<defs>
<clipPath id="clip0_54_1252">
<rect width="20" height="20" fill="white"/>
</clipPath>
</defs>
</svg>
