<svg width="30" height="30" viewBox="0 0 30 30" fill="none" xmlns="http://www.w3.org/2000/svg">
<path fill-rule="evenodd" clip-rule="evenodd" d="M12.5 6.25C9.04822 6.25 6.25 9.04822 6.25 12.5C6.25 15.9517 9.04822 18.75 12.5 18.75C14.2262 18.75 15.787 18.0519 16.9194 16.9194C18.0519 15.787 18.75 14.2262 18.75 12.5C18.75 9.04822 15.9517 6.25 12.5 6.25ZM3.75 12.5C3.75 7.66751 7.66751 3.75 12.5 3.75C17.3325 3.75 21.25 7.66751 21.25 12.5C21.25 14.4649 20.6012 16.2799 19.5079 17.7401L25.8839 24.1161C26.372 24.6042 26.372 25.3957 25.8839 25.8839C25.3957 26.372 24.6042 26.372 24.1161 25.8839L17.7401 19.5079C16.2799 20.6012 14.4649 21.25 12.5 21.25C7.66751 21.25 3.75 17.3325 3.75 12.5Z" fill="#595959"/>
</svg>
